bicep_curl
version=1
nRows=101
nColumns=3
inDegrees=yes

# SIMM Motion File Header:
name bicep_curl
datacolumns 3
datarows 101
otherdata 1
range 0.0000 1.0000
endheader
time	/jointset/r_shoulder/r_shoulder_elev/value	/jointset/r_elbow/r_elbow_flex/value
0.0000	0.0000	70.0000
0.0100	0.0000	79.1728
0.0200	0.0000	51.8380
0.0300	0.0000	96.7877
0.0400	0.0000	35.1228
0.0500	0.0000	112.2687
0.0600	0.0000	21.1858
0.0700	0.0000	124.3826
0.0800	0.0000	11.1374
0.0900	0.0000	132.1644
0.1000	0.0000	5.7779
0.1100	0.0000	134.9943
0.1200	0.0000	5.5344
0.1300	0.0000	132.6467
0.1400	0.0000	10.4261
0.1500	0.0000	125.3087
0.1600	0.0000	20.0634
0.1700	0.0000	113.5649
0.1800	0.0000	33.6787
0.1900	0.0000	98.3507
0.2000	0.0000	50.1873
0.2100	0.0000	80.8781
0.2200	0.0000	68.2742
0.2300	0.0000	62.5390
0.2400	0.0000	86.4985
0.2500	0.0000	44.7942
0.2600	0.0000	103.4086
0.2700	0.0000	29.0573
0.2800	0.0000	117.6574
0.2900	0.0000	16.5818
0.3000	0.0000	128.1098
0.3100	0.0000	8.3617
0.3200	0.0000	133.9332
0.3300	0.0000	5.0516
0.3400	0.0000	134.6637
0.3500	0.0000	6.9152
0.3600	0.0000	130.2432
0.3700	0.0000	13.8042
0.3800	0.0000	121.0237
0.3900	0.0000	25.1696
0.4000	0.0000	107.7397
0.4100	0.0000	40.1063
0.4200	0.0000	91.4494
0.4300	0.0000	57.4242
0.4400	0.0000	73.4504
0.4500	0.0000	75.7440
0.4600	0.0000	55.1766
0.4700	0.0000	93.6061
0.4800	0.0000	38.0836
0.4900	0.0000	109.5879
0.5000	0.0000	23.5330
0.5100	0.0000	122.4160
0.5200	0.0000	12.6840
0.5300	0.0000	131.0688
0.5400	0.0000	6.4007
0.5500	0.0000	134.8568
0.5600	0.0000	5.1837
0.5700	0.0000	133.4784
0.5800	0.0000	9.1300
0.5900	0.0000	127.0433
0.6000	0.0000	17.9251
0.6100	0.0000	116.0642
0.6200	0.0000	30.8684
0.6300	0.0000	101.4157
0.6400	0.0000	46.9290
0.6500	0.0000	84.2646
0.6600	0.0000	64.8274
0.6700	0.0000	65.9771
0.6800	0.0000	83.1378
0.6900	0.0000	48.0102
0.7000	0.0000	100.4017
0.7100	0.0000	31.7949
0.7200	0.0000	115.2438
0.7300	0.0000	18.6230
0.7400	0.0000	126.4818
0.7500	0.0000	9.5438
0.7600	0.0000	133.2205
0.7700	0.0000	5.2805
0.7800	0.0000	134.9231
0.7900	0.0000	6.1727
0.8000	0.0000	131.4539
0.8100	0.0000	12.1494
0.8200	0.0000	123.0894
0.8300	0.0000	22.7344
0.8400	0.0000	110.4958
0.8500	0.0000	37.0845
0.8600	0.0000	94.6763
0.8700	0.0000	54.0567
0.8800	0.0000	76.8911
0.8900	0.0000	72.2989
0.9000	0.0000	58.5570
0.9100	0.0000	90.3580
0.9200	0.0000	41.1344
0.9300	0.0000	106.7954
0.9400	0.0000	26.0113
0.9500	0.0000	120.3017
0.9600	0.0000	14.3922
0.9700	0.0000	129.8009
0.9800	0.0000	7.2029
0.9900	0.0000	134.5365
1.0000	0.0000	5.0159
